<svg aria-roledescription="flowchart-v2" role="graphics-document document" viewBox="0 0 2044.232666015625 998.337158203125" style="max-width: 2044.23px; background: rgb(23, 23, 25);" class="flowchart" xmlns="http://www.w3.org/2000/svg" width="100%" id="export-svg"><style xmlns="http://www.w3.org/1999/xhtml">@import url("https://cdnjs.cloudflare.com/ajax/libs/font-awesome/6.2.0/css/all.min.css"); p {margin: 0;}</style><style>#export-svg{font-family:arial,sans-serif;font-size:14px;fill:#ccc;}@keyframes edge-animation-frame{from{stroke-dashoffset:0;}}@keyframes dash{to{stroke-dashoffset:0;}}#export-svg .edge-animation-slow{stroke-dasharray:9,5!important;stroke-dashoffset:900;animation:dash 50s linear infinite;stroke-linecap:round;}#export-svg .edge-animation-fast{stroke-dasharray:9,5!important;stroke-dashoffset:900;animation:dash 20s linear infinite;stroke-linecap:round;}#export-svg .error-icon{fill:hsl(20, 1.5873015873%, 12.3529411765%);}#export-svg .error-text{fill:rgb(222.9999999999, 223.6666666666, 223.9999999999);stroke:rgb(222.9999999999, 223.6666666666, 223.9999999999);}#export-svg .edge-thickness-normal{stroke-width:1px;}#export-svg .edge-thickness-thick{stroke-width:3.5px;}#export-svg .edge-pattern-solid{stroke-dasharray:0;}#export-svg .edge-thickness-invisible{stroke-width:0;fill:none;}#export-svg .edge-pattern-dashed{stroke-dasharray:3;}#export-svg .edge-pattern-dotted{stroke-dasharray:2;}#export-svg .marker{fill:#cccccc;stroke:#cccccc;}#export-svg .marker.cross{stroke:#cccccc;}#export-svg svg{font-family:arial,sans-serif;font-size:14px;}#export-svg p{margin:0;}#export-svg .label{font-family:arial,sans-serif;color:#e0dfdf;}#export-svg .cluster-label text{fill:rgb(222.9999999999, 223.6666666666, 223.9999999999);}#export-svg .cluster-label span{color:rgb(222.9999999999, 223.6666666666, 223.9999999999);}#export-svg .cluster-label span p{background-color:transparent;}#export-svg .label text,#export-svg span{fill:#e0dfdf;color:#e0dfdf;}#export-svg .node rect,#export-svg .node circle,#export-svg .node ellipse,#export-svg .node polygon,#export-svg .node path{fill:#2a2020;stroke:#ccc;stroke-width:1px;}#export-svg .rough-node .label text,#export-svg .node .label text,#export-svg .image-shape .label,#export-svg .icon-shape .label{text-anchor:middle;}#export-svg .node .katex path{fill:#000;stroke:#000;stroke-width:1px;}#export-svg .rough-node .label,#export-svg .node .label,#export-svg .image-shape .label,#export-svg .icon-shape .label{text-align:center;}#export-svg .node.clickable{cursor:pointer;}#export-svg .root .anchor path{fill:#cccccc!important;stroke-width:0;stroke:#cccccc;}#export-svg .arrowheadPath{fill:#cccccc;}#export-svg .edgePath .path{stroke:#cccccc;stroke-width:1px;}#export-svg .flowchart-link{stroke:#cccccc;fill:none;}#export-svg .edgeLabel{background-color:hsl(180, 1.5873015873%, 28.3529411765%);text-align:center;}#export-svg .edgeLabel p{background-color:hsl(180, 1.5873015873%, 28.3529411765%);}#export-svg .edgeLabel rect{opacity:0.5;background-color:hsl(180, 1.5873015873%, 28.3529411765%);fill:hsl(180, 1.5873015873%, 28.3529411765%);}#export-svg .labelBkg{background-color:rgba(71.1523809525, 73.4476190477, 73.4476190477, 0.5);}#export-svg .cluster rect{fill:hsl(20, 1.5873015873%, 12.3529411765%);stroke:hsl(20, 0%, 2.3529411765%);stroke-width:1px;}#export-svg .cluster text{fill:rgb(222.9999999999, 223.6666666666, 223.9999999999);}#export-svg .cluster span{color:rgb(222.9999999999, 223.6666666666, 223.9999999999);}#export-svg div.mermaidTooltip{position:absolute;text-align:center;max-width:200px;padding:2px;font-family:arial,sans-serif;font-size:12px;background:hsl(20, 1.5873015873%, 12.3529411765%);border:1px solid rgba(255, 255, 255, 0.25);border-radius:2px;pointer-events:none;z-index:100;}#export-svg .flowchartTitleText{text-anchor:middle;font-size:18px;fill:#ccc;}#export-svg rect.text{fill:none;stroke-width:0;}#export-svg .icon-shape,#export-svg .image-shape{background-color:hsl(180, 1.5873015873%, 28.3529411765%);text-align:center;}#export-svg .icon-shape p,#export-svg .image-shape p{background-color:hsl(180, 1.5873015873%, 28.3529411765%);padding:2px;}#export-svg .icon-shape rect,#export-svg .image-shape rect{opacity:0.5;background-color:hsl(180, 1.5873015873%, 28.3529411765%);fill:hsl(180, 1.5873015873%, 28.3529411765%);}#export-svg .node .neo-node{stroke:#ccc;}#export-svg [data-look="neo"].node rect,#export-svg [data-look="neo"].cluster rect,#export-svg [data-look="neo"].node polygon{stroke:url(#export-svg-gradient);filter:drop-shadow( 1px 2px 2px rgba(185,185,185,0.2));}#export-svg [data-look="neo"].node path{stroke:url(#export-svg-gradient);}#export-svg [data-look="neo"].node .outer-path{filter:drop-shadow( 1px 2px 2px rgba(185,185,185,0.2));}#export-svg [data-look="neo"].node .neo-line path{stroke:#cccccc;filter:none;}#export-svg [data-look="neo"].node circle{stroke:url(#export-svg-gradient);filter:drop-shadow( 1px 2px 2px rgba(185,185,185,0.2));}#export-svg [data-look="neo"].node circle .state-start{fill:#000000;}#export-svg [data-look="neo"].statediagram-cluster rect{fill:#2a2020;stroke:url(#export-svg-gradient);stroke-width:1px;}#export-svg [data-look="neo"].icon-shape .icon{fill:url(#export-svg-gradient);filter:drop-shadow( 1px 2px 2px rgba(185,185,185,0.2));}#export-svg [data-look="neo"].icon-shape .icon-neo path{stroke:url(#export-svg-gradient);filter:drop-shadow( 1px 2px 2px rgba(185,185,185,0.2));}#export-svg :root{--mermaid-font-family:"trebuchet ms",verdana,arial,sans-serif;}</style><g><marker orient="auto" markerHeight="14" markerWidth="10.5" markerUnits="userSpaceOnUse" refY="7" refX="7.75" viewBox="0 0 11.5 14" class="marker flowchart-v2" id="export-svg_flowchart-v2-pointEnd"><path style="stroke-width: 0; stroke-dasharray: 1, 0;" class="arrowMarkerPath" d="M 0 0 L 11.5 7 L 0 14 z"/></marker><marker orient="auto" markerHeight="14" markerWidth="11.5" markerUnits="userSpaceOnUse" refY="7" refX="4" viewBox="0 0 11.5 14" class="marker flowchart-v2" id="export-svg_flowchart-v2-pointStart"><polygon style="stroke-width: 0; stroke-dasharray: 1, 0;" class="arrowMarkerPath" points="0,7 11.5,14 11.5,0"/></marker><marker orient="auto" markerHeight="14" markerWidth="10.5" markerUnits="userSpaceOnUse" refY="7" refX="11.5" viewBox="0 0 11.5 14" class="marker flowchart-v2" id="export-svg_flowchart-v2-pointEnd-margin"><path style="stroke-width: 0; stroke-dasharray: 1, 0;" class="arrowMarkerPath" d="M 0 0 L 11.5 7 L 0 14 z"/></marker><marker orient="auto" markerHeight="14" markerWidth="11.5" markerUnits="userSpaceOnUse" refY="7" refX="1" viewBox="0 0 11.5 14" class="marker flowchart-v2" id="export-svg_flowchart-v2-pointStart-margin"><polygon style="stroke-width: 0; stroke-dasharray: 1, 0;" class="arrowMarkerPath" points="0,7 11.5,14 11.5,0"/></marker><marker orient="auto" markerHeight="14" markerWidth="14" markerUnits="userSpaceOnUse" refX="10.75" refY="5" viewBox="0 0 10 10" class="marker flowchart-v2" id="export-svg_flowchart-v2-circleEnd"><circle style="stroke-width: 0; stroke-dasharray: 1, 0;" class="arrowMarkerPath" r="5" cy="5" cx="5"/></marker><marker orient="auto" markerHeight="14" markerWidth="14" markerUnits="userSpaceOnUse" refY="5" refX="0" viewBox="0 0 10 10" class="marker flowchart-v2" id="export-svg_flowchart-v2-circleStart"><circle style="stroke-width: 0; stroke-dasharray: 1, 0;" class="arrowMarkerPath" r="5" cy="5" cx="5"/></marker><marker orient="auto" markerHeight="14" markerWidth="14" markerUnits="userSpaceOnUse" refX="12.25" refY="5" viewBox="0 0 10 10" class="marker flowchart-v2" id="export-svg_flowchart-v2-circleEnd-margin"><circle style="stroke-width: 0; stroke-dasharray: 1, 0;" class="arrowMarkerPath" r="5" cy="5" cx="5"/></marker><marker orient="auto" markerHeight="14" markerWidth="14" markerUnits="userSpaceOnUse" refY="5" refX="-2" viewBox="0 0 10 10" class="marker flowchart-v2" id="export-svg_flowchart-v2-circleStart-margin"><circle style="stroke-width: 0; stroke-dasharray: 1, 0;" class="arrowMarkerPath" r="5" cy="5" cx="5"/></marker><marker orient="auto" markerHeight="12" markerWidth="12" markerUnits="userSpaceOnUse" refY="7.5" refX="17.7" viewBox="0 0 15 15" class="marker cross flowchart-v2" id="export-svg_flowchart-v2-crossEnd"><path style="stroke-width: 2.5;" class="arrowMarkerPath" d="M 1,1 L 14,14 M 1,14 L 14,1"/></marker><marker orient="auto" markerHeight="12" markerWidth="12" markerUnits="userSpaceOnUse" refY="7.5" refX="-3.5" viewBox="0 0 15 15" class="marker cross flowchart-v2" id="export-svg_flowchart-v2-crossStart"><path style="stroke-width: 2.5; stroke-dasharray: 1, 0;" class="arrowMarkerPath" d="M 1,1 L 14,14 M 1,14 L 14,1"/></marker><marker orient="auto" markerHeight="12" markerWidth="12" markerUnits="userSpaceOnUse" refY="7.5" refX="17.7" viewBox="0 0 15 15" class="marker cross flowchart-v2" id="export-svg_flowchart-v2-crossEnd-margin"><path style="stroke-width: 2.5;" class="arrowMarkerPath" d="M 1,1 L 14,14 M 1,14 L 14,1"/></marker><marker orient="auto" markerHeight="12" markerWidth="12" markerUnits="userSpaceOnUse" refY="7.5" refX="-3.5" viewBox="0 0 15 15" class="marker cross flowchart-v2" id="export-svg_flowchart-v2-crossStart-margin"><path style="stroke-width: 2.5; stroke-dasharray: 1, 0;" class="arrowMarkerPath" d="M 1,1 L 14,14 M 1,14 L 14,1"/></marker><g class="root"><g class="clusters"><g data-look="neo" data-et="cluster" data-id="External_Systems" id="External_Systems" class="cluster"><rect height="150.29029846191406" width="561.0353164672852" y="840.046875" x="1475.197265625" style=""/><g transform="translate(1701.2500801086426, 840.046875)" class="cluster-label"><foreignObject height="21" width="108.9296875"><div xmlns="http://www.w3.org/1999/xhtml" style="display: table-cell; white-space: normal; line-height: 1.5; max-width: 200px; text-align: center;"><span class="nodeLabel"><p>External Systems</p></span></div></foreignObject></g></g><g data-look="neo" data-et="cluster" data-id="Lynx_System" id="Lynx_System" class="cluster"><rect height="982.3371734619141" width="1447.197265625" y="8" x="8" style=""/><g transform="translate(691.7861328125, 8)" class="cluster-label"><foreignObject height="21" width="79.625"><div xmlns="http://www.w3.org/1999/xhtml" style="display: table-cell; white-space: normal; line-height: 1.5; max-width: 200px; text-align: center;"><span class="nodeLabel"><p>Lynx System</p></span></div></foreignObject></g></g><g data-look="neo" data-et="cluster" data-id="Knowledge_Agent" id="Knowledge_Agent" class="cluster"><rect height="583.046875" width="487.595703125" y="207" x="947.6015625" style=""/><g transform="translate(1136.9072265625, 207)" class="cluster-label"><foreignObject height="21" width="108.984375"><div xmlns="http://www.w3.org/1999/xhtml" style="display: table-cell; white-space: normal; line-height: 1.5; max-width: 200px; text-align: center;"><span class="nodeLabel"><p>Knowledge Agent</p></span></div></foreignObject></g></g><g data-look="neo" data-et="cluster" data-id="AI_Gateway" id="AI_Gateway" class="cluster"><rect height="369.33717346191406" width="386.9375" y="596" x="28" style=""/><g transform="translate(185.28515625, 596)" class="cluster-label"><foreignObject height="21" width="72.3671875"><div xmlns="http://www.w3.org/1999/xhtml" style="display: table-cell; white-space: normal; line-height: 1.5; max-width: 200px; text-align: center;"><span class="nodeLabel"><p>AI Gateway</p></span></div></foreignObject></g></g><g data-look="neo" data-et="cluster" data-id="Lynx_Core" id="Lynx_Core" class="cluster"><rect height="418.046875" width="259.84375" y="372" x="434.9375" style=""/><g transform="translate(533.21484375, 372)" class="cluster-label"><foreignObject height="21" width="63.2890625"><div xmlns="http://www.w3.org/1999/xhtml" style="display: table-cell; white-space: normal; line-height: 1.5; max-width: 200px; text-align: center;"><span class="nodeLabel"><p>Lynx Core</p></span></div></foreignObject></g></g><g data-look="neo" data-et="cluster" data-id="Docs" id="Docs" class="cluster"><rect height="194.046875" width="192.8203125" y="596" x="734.78125" style=""/><g transform="translate(815.2421875, 596)" class="cluster-label"><foreignObject height="21" width="31.8984375"><div xmlns="http://www.w3.org/1999/xhtml" style="display: table-cell; white-space: normal; line-height: 1.5; max-width: 200px; text-align: center;"><span class="nodeLabel"><p>Docs</p></span></div></foreignObject></g></g><g data-look="neo" data-et="cluster" data-id="WebUI" id="WebUI" class="cluster"><rect height="289" width="286.33203125" y="33" x="486.654296875" style=""/><g transform="translate(608.55078125, 33)" class="cluster-label"><foreignObject height="21" width="42.5390625"><div xmlns="http://www.w3.org/1999/xhtml" style="display: table-cell; white-space: normal; line-height: 1.5; max-width: 200px; text-align: center;"><span class="nodeLabel"><p>WebUI</p></span></div></foreignObject></g></g></g><g class="edgePaths"><path marker-end="url(#export-svg_flowchart-v2-pointEnd-margin)" marker-start="url(#export-svg_flowchart-v2-pointStart-margin)" data-points="W3sieCI6NjMwLjMyMDMxMjUsInkiOjE1Ny41fSx7IngiOjYyOS44MjAzMTI1LCJ5IjoxODJ9LHsieCI6NjI5LjgyMDMxMjUsInkiOjIwN30seyJ4Ijo2MzAuMzIwMzEyNSwieSI6MjMyLjV9XQ==" data-id="L_clerk_web_ui_0" data-et="edge" data-edge="true" style="stroke-dasharray: 0 9 49.00861358642578 9; stroke-dashoffset: 0;;" class="edge-thickness-normal edge-pattern-solid edge-thickness-normal edge-pattern-solid flowchart-link" id="L_clerk_web_ui_0" d="M630.2386968413499,161.49916727385377L630.0295046706749,171.7495836369269Q629.8203125,182 629.8203125,192.25255075484284L629.8203125,196.24754925514316Q629.8203125,207 630.031104350131,217.75038435668654L630.2418962002622,228.5007687133731"/><path marker-end="url(#export-svg_flowchart-v2-pointEnd-margin)" marker-start="url(#export-svg_flowchart-v2-pointStart-margin)" data-points="W3sieCI6NTU1LjM1OTM3NSwieSI6NDQyLjV9LHsieCI6NTU0Ljg1OTM3NSwieSI6NDY3fSx7IngiOjU1NS4zNTkzNzUsInkiOjQ5Mi41fV0=" data-id="L_lynx_core_drizzle_orm_0" data-et="edge" data-edge="true" style="stroke-dasharray: 0 9 24.007259368896484 9; stroke-dashoffset: 0;;" class="edge-thickness-normal edge-pattern-solid edge-thickness-normal edge-pattern-solid flowchart-link" id="L_lynx_core_drizzle_orm_0" d="M555.2777593413499,446.4991672738538L555.0685671706749,456.7495836369269Q554.859375,467 555.0603667732671,477.25058043662443L555.2809587002622,488.5007687133731"/><path marker-end="url(#export-svg_flowchart-v2-pointEnd-margin)" data-points="W3sieCI6NTYwLjU1MTY4MjY5MjMwNzcsInkiOjU0Ni41fSx7IngiOjU2NC44NTkzNzUsInkiOjU3MX0seyJ4Ijo1NjQuODU5Mzc1LCJ5Ijo1OTZ9LHsieCI6NTY1LjM1OTM3NSwieSI6NjcxLjAyMzQzNzV9XQ==" data-id="L_drizzle_orm_dataConnector_0" data-et="edge" data-edge="true" style="stroke-dasharray: 0 0 111.83809661865234 9; stroke-dashoffset: 0;;" class="edge-thickness-normal edge-pattern-solid edge-thickness-normal edge-pattern-solid flowchart-link" id="L_drizzle_orm_dataConnector_0" d="M560.5516826923077,546.5L562.7055288461538,558.75Q564.859375,571 564.859375,583.4379079130872L564.859375,583.5Q564.859375,596 564.942680449747,608.4997224049994L565.332717256081,667.0235263304002"/><path marker-end="url(#export-svg_flowchart-v2-pointEnd-margin)" marker-start="url(#export-svg_flowchart-v2-pointStart-margin)" data-points="W3sieCI6MTM2LjY2NDA2MjUsInkiOjc2NS41NDY4NzV9LHsieCI6MTM2LjE2NDA2MjUsInkiOjc5MC4wNDY4NzV9LHsieCI6MTM2LjE2NDA2MjUsInkiOjgxNS4wNDY4NzV9LHsieCI6MTM2LjE2NDA2MjUsInkiOjg0MC4wNDY4NzV9LHsieCI6MTkzLjgzMzQ3NTM0MjYwMzI2LCJ5Ijo4ODAuNjkyMDI0MjMwOTU3fV0=" data-id="L_model_router_unified_api_0" data-et="edge" data-edge="true" style="stroke-dasharray: 0 9 117.45150756835938 9; stroke-dashoffset: 0;;" class="edge-thickness-normal edge-pattern-solid edge-thickness-normal edge-pattern-solid flowchart-link" id="L_model_router_unified_api_0" d="M136.58244684134993,769.5460422738538L136.37325467067495,779.7964586369269Q136.1640625,790.046875 136.1640625,800.2994257548428L136.1640625,815.046875L136.1640625,829.1864140277451Q136.1640625,840.046875 145.04125285411152,846.3034798258415L190.56393075263054,878.3876635443066"/><path marker-end="url(#export-svg_flowchart-v2-pointEnd-margin)" marker-start="url(#export-svg_flowchart-v2-pointStart-margin)" data-points="W3sieCI6MzE1LjA4NTkzNzUsInkiOjcxNi4wMjM0Mzc1fSx7IngiOjMxNC41ODU5Mzc1LCJ5Ijo3OTAuMDQ2ODc1fSx7IngiOjMxNC41ODU5Mzc1LCJ5Ijo4MTUuMDQ2ODc1fSx7IngiOjMxNC41ODU5Mzc1LCJ5Ijo4NDAuMDQ2ODc1fSx7IngiOjI1Ny45MTY1MjQ2NTczOTY2LCJ5Ijo4ODAuNjkyMDI0MjMwOTU3fV0=" data-id="L_ai_gateway_unified_api_0" data-et="edge" data-edge="true" style="stroke-dasharray: 0 9 166.17117309570312 9; stroke-dashoffset: 0;;" class="edge-thickness-normal edge-pattern-solid edge-thickness-normal edge-pattern-solid flowchart-link" id="L_ai_gateway_unified_api_0" d="M315.0589196466788,720.0233462534095L314.6703682916287,777.5471601455953Q314.5859375,790.046875 314.5859375,802.546875L314.5859375,815.046875L314.5859375,829.0991298968827Q314.5859375,840.046875 305.6898071102646,846.4274695594166L261.16692199710167,878.3607333580632"/><path marker-end="url(#export-svg_flowchart-v2-pointEnd-margin)" data-points="W3sieCI6NTg3Ljk1MTA4Njk1NjUyMTcsInkiOjI5Ny41fSx7IngiOjU1NC44NTkzNzUsInkiOjMyMn0seyJ4Ijo1NTQuODU5Mzc1LCJ5IjozNDd9LHsieCI6NTU0Ljg1OTM3NSwieSI6MzcyfSx7IngiOjU1NS4zNTkzNzUsInkiOjM5Ny41fV0=" data-id="L_web_ui_lynx_core_0" data-et="edge" data-edge="true" style="stroke-dasharray: 0 0 102.11180877685547 9; stroke-dashoffset: 0;;" class="edge-thickness-normal edge-pattern-solid edge-thickness-normal edge-pattern-solid flowchart-link" id="L_web_ui_lynx_core_0" d="M587.9510869565217,297.5L563.789754048255,315.3882451603074Q554.859375,322 554.859375,333.11156928636586L554.859375,347L554.859375,361.24754925514316Q554.859375,372 555.070166850131,382.75038435668654L555.2809587002622,393.5007687133731"/><path marker-end="url(#export-svg_flowchart-v2-pointEnd-margin)" data-points="W3sieCI6NjcxLjczMDQ2ODc1LCJ5IjoyOTMuMDI1NjMyMTgzOTA4MDR9LHsieCI6NzE0Ljc4MTI1LCJ5IjozMjJ9LHsieCI6NzE0Ljc4MTI1LCJ5IjozNDd9LHsieCI6NzE0Ljc4MTI1LCJ5IjozNzJ9LHsieCI6NzE0Ljc4MTI1LCJ5Ijo0MTkuNX0seyJ4Ijo3MTQuNzgxMjUsInkiOjQ2N30seyJ4Ijo3MTQuNzgxMjUsInkiOjUxOX0seyJ4Ijo3MTQuNzgxMjUsInkiOjU3MX0seyJ4Ijo3MTQuNzgxMjUsInkiOjU5Nn0seyJ4Ijo3MTQuNzgxMjUsInkiOjY5My4wMjM0Mzc1fSx7IngiOjcxNC43ODEyNSwieSI6NzkwLjA0Njg3NX0seyJ4Ijo3MTQuNzgxMjUsInkiOjgxNS4wNDY4NzV9LHsieCI6NzE0Ljc4MTI1LCJ5Ijo4NDAuMDQ2ODc1fSx7IngiOjE2NDMuNTIxNjcyNTM3NzEwNiwieSI6OTAwLjcxNTA4NTQwNTUzNn1d" data-id="L_web_ui_vercel_0" data-et="edge" data-edge="true" style="stroke-dasharray: 0 0 1483.466064453125 9; stroke-dashoffset: 0;;" class="edge-thickness-normal edge-pattern-solid edge-thickness-normal edge-pattern-solid flowchart-link" id="L_web_ui_vercel_0" d="M671.73046875,293.02563218390804L705.9541659453043,316.0591280176985Q714.78125,322 714.78125,332.64008330882604L714.78125,347L714.78125,372L714.78125,419.5L714.78125,467L714.78125,519L714.78125,571L714.78125,596L714.78125,693.0234375L714.78125,790.046875L714.78125,815.046875L714.78125,832.7334304017472Q714.78125,840.046875 722.0791407278144,840.5235959001002L1639.5301795388805,900.4543486795264"/><path marker-end="url(#export-svg_flowchart-v2-pointEnd-margin)" data-points="W3sieCI6ODMxLjY5MTQwNjI1LCJ5Ijo3MjYuMDIzNDM3NX0seyJ4Ijo4MzEuMTkxNDA2MjUsInkiOjc5MC4wNDY4NzV9LHsieCI6ODMxLjE5MTQwNjI1LCJ5Ijo4MTUuMDQ2ODc1fSx7IngiOjgzMS4xOTE0MDYyNSwieSI6ODQwLjA0Njg3NX0seyJ4IjoxNjQzLjY4NTI0ODcxMzE0MTgsInkiOjkwMC4zODc5MzMwNTQ2NzM1fV0=" data-id="L_docs_vercel_0" data-et="edge" data-edge="true" style="stroke-dasharray: 0 0 913.2216796875 9; stroke-dashoffset: 0;;" class="edge-thickness-normal edge-pattern-solid edge-thickness-normal edge-pattern-solid flowchart-link" id="L_docs_vercel_0" d="M831.69140625,726.0234375L831.2890237734807,777.5472561730473Q831.19140625,790.046875 831.19140625,802.546875L831.19140625,815.046875L831.19140625,832.6984516395677Q831.19140625,840.046875 838.5196479047763,840.5911177154759L1639.6962343108223,900.0916829946095"/><path marker-end="url(#export-svg_flowchart-v2-pointEnd-margin)" marker-start="url(#export-svg_flowchart-v2-pointStart-margin)" data-points="W3sieCI6NTY1LjM1OTM3NSwieSI6NzE2LjAyMzQzNzV9LHsieCI6NTY0Ljg1OTM3NSwieSI6NzkwLjA0Njg3NX0seyJ4Ijo1NjQuODU5Mzc1LCJ5Ijo4MTUuMDQ2ODc1fSx7IngiOjU2NC44NTkzNzUsInkiOjg0MC4wNDY4NzV9LHsieCI6MTUxMC4xOTcyNjU2MjUsInkiOjkwMC4xMDA2MDE4MTQxMjE3fV0=" data-id="L_dataConnector_datastax_0" data-et="edge" data-edge="true" style="stroke-dasharray: 0 9 1042.71484375 9; stroke-dashoffset: 0;;" class="edge-thickness-normal edge-pattern-solid edge-thickness-normal edge-pattern-solid flowchart-link" id="L_dataConnector_datastax_0" d="M565.3323571466789,720.0233462534095L564.9438057916287,777.5471601455953Q564.859375,790.046875 564.859375,802.546875L564.859375,815.046875L564.859375,832.7404058288529Q564.859375,840.046875 572.1511457288888,840.5100935080981L1506.2053124349784,899.8470081851074"/><path marker-end="url(#export-svg_flowchart-v2-pointEnd-margin)" marker-start="url(#export-svg_flowchart-v2-pointStart-margin)" data-points="W3sieCI6NTI2LjgyMTk2NTE0NDIzMDcsInkiOjU0Ni41fSx7IngiOjQ5OS44OTg0Mzc1LCJ5Ijo1NzF9LHsieCI6NDk5Ljg5ODQzNzUsInkiOjU5Nn0seyJ4IjozNTguMDYwNDEyMDk1Mzc4MDcsInkiOjY3MS4wMjM0Mzc1fV0=" data-id="L_drizzle_orm_ai_gateway_0" data-et="edge" data-edge="true" style="stroke-dasharray: 0 9 192.64065551757812 9; stroke-dashoffset: 0;;" class="edge-thickness-normal edge-pattern-solid edge-thickness-normal edge-pattern-solid flowchart-link" id="L_drizzle_orm_ai_gateway_0" d="M523.8635214344122,549.1921387066485L509.0445696788561,562.6771590505158Q499.8984375,571 499.8984375,583.3661398707728L499.8984375,586.3094208198903Q499.8984375,596 491.3323410412352,600.5309288567703L361.59625708443593,669.153196816731"/><path marker-end="url(#export-svg_flowchart-v2-pointEnd-margin)" marker-start="url(#export-svg_flowchart-v2-pointStart-margin)" data-points="W3sieCI6MTE2MS43ODEyNSwieSI6NzE1LjUyMzQzNzV9LHsieCI6MTE2MS43ODEyNSwieSI6NzkwLjA0Njg3NX0seyJ4IjoxMTYxLjc4MTI1LCJ5Ijo4MTUuMDQ2ODc1fSx7IngiOjExNjEuNzgxMjUsInkiOjg0MC4wNDY4NzV9LHsieCI6MTc3MC42ODU3MDcwOTIyODUyLCJ5Ijo4OTguNjE3NDcwNjY2ODgxNn1d" data-id="L_supabase_connection_supabase_0" data-et="edge" data-edge="true" style="stroke-dasharray: 0 9 707.7410888671875 9; stroke-dashoffset: 0;;" class="edge-thickness-normal edge-pattern-solid edge-thickness-normal edge-pattern-solid flowchart-link" id="L_supabase_connection_supabase_0" d="M1161.78125,719.5234375L1161.78125,790.046875L1161.78125,815.046875L1161.78125,832.6108591256024Q1161.78125,840.046875 1169.1831017536097,840.7588600432974L1766.7040847404048,898.2344779162884"/><path marker-end="url(#export-svg_flowchart-v2-pointEnd-margin)" data-points="W3sieCI6MTI3OS4xMDk1NDQ4MzY5NTY1LCJ5IjoyODd9LHsieCI6MTM2OC4zNzUsInkiOjMyMn0seyJ4IjoxMzY4LjM3NSwieSI6MzQ3fSx7IngiOjEzNjguMzc1LCJ5IjozNzJ9LHsieCI6MTM2OC4zNzUsInkiOjQxOS41fSx7IngiOjEzNjguMzc1LCJ5Ijo0Njd9LHsieCI6MTM2OC4zNzUsInkiOjUxOX0seyJ4IjoxMzY4LjM3NSwieSI6NTcxfSx7IngiOjEzNjguMzc1LCJ5Ijo1OTZ9LHsieCI6MTM2OC4zNzUsInkiOjY5My4wMjM0Mzc1fSx7IngiOjEzNjguMzc1LCJ5Ijo3OTAuMDQ2ODc1fSx7IngiOjEzNjguMzc1LCJ5Ijo4MTUuMDQ2ODc1fSx7IngiOjEzNjguMzc1LCJ5Ijo4NDAuMDQ2ODc1fSx7IngiOjE5MDUuNDA0NDU3MDkyMjg1MiwieSI6ODk3LjU2MDYxNjY3NjE0NTV9XQ==" data-id="L_parallel_scraper_webpages_0" data-et="edge" data-edge="true" style="stroke-dasharray: 0 0 1136.533447265625 9; stroke-dashoffset: 0;;" class="edge-thickness-normal edge-pattern-solid edge-thickness-normal edge-pattern-solid flowchart-link" id="L_parallel_scraper_webpages_0" d="M1279.1095448369565,287L1360.1135450980464,318.76077469116984Q1368.375,322 1368.375,330.8737938728808L1368.375,347L1368.375,372L1368.375,419.5L1368.375,467L1368.375,519L1368.375,571L1368.375,596L1368.375,693.0234375L1368.375,790.046875L1368.375,815.046875L1368.375,832.5663066595579Q1368.375,840.046875 1375.8130344363683,840.8434592199193L1901.4272007674383,897.1346681740175"/><path marker-end="url(#export-svg_flowchart-v2-pointEnd-margin)" data-points="W3sieCI6MTE2MC42ODExMzExMTQxMzA1LCJ5IjoyODd9LHsieCI6MTA2NS43MjQ2MDkzNzUsInkiOjMyMn0seyJ4IjoxMDY1LjcyNDYwOTM3NSwieSI6MzQ3fSx7IngiOjEwNjUuNzI0NjA5Mzc1LCJ5IjozNzJ9LHsieCI6MTA2NS43MjQ2MDkzNzUsInkiOjM5N31d" data-id="L_parallel_scraper_document_processor_0" data-et="edge" data-edge="true" style="stroke-dasharray: 0 0 161.14895629882812 9; stroke-dashoffset: 0;;" class="edge-thickness-normal edge-pattern-solid edge-thickness-normal edge-pattern-solid flowchart-link" id="L_parallel_scraper_document_processor_0" d="M1160.6811311141305,287L1073.9277938779865,318.97639032742484Q1065.724609375,322 1065.724609375,330.7426798775964L1065.724609375,347L1065.724609375,372L1065.724609375,393"/><path marker-end="url(#export-svg_flowchart-v2-pointEnd-margin)" data-points="W3sieCI6MTA2NS43MjQ2MDkzNzUsInkiOjQ0Mn0seyJ4IjoxMDY1LjcyNDYwOTM3NSwieSI6NDY3fSx7IngiOjEwNjUuNzI0NjA5Mzc1LCJ5Ijo0OTYuNX1d" data-id="L_document_processor_embeddings_0" data-et="edge" data-edge="true" style="stroke-dasharray: 0 0 41.5 9; stroke-dashoffset: 0;;" class="edge-thickness-normal edge-pattern-solid edge-thickness-normal edge-pattern-solid flowchart-link" id="L_document_processor_embeddings_0" d="M1065.724609375,442L1065.724609375,467L1065.724609375,492.5"/><path marker-end="url(#export-svg_flowchart-v2-pointEnd-margin)" data-points="W3sieCI6MTA2NS43MjQ2MDkzNzUsInkiOjU0MS41fSx7IngiOjEwNjUuNzI0NjA5Mzc1LCJ5Ijo1NzF9LHsieCI6MTA2NS43MjQ2MDkzNzUsInkiOjU5Nn0seyJ4IjoxMTM5LjUwNTQ1MjgzNDM2NjcsInkiOjY3MC41MjM0Mzc1fV0=" data-id="L_embeddings_supabase_connection_0" data-et="edge" data-edge="true" style="stroke-dasharray: 0 0 145.12551879882812 9; stroke-dashoffset: 0;;" class="edge-thickness-normal edge-pattern-solid edge-thickness-normal edge-pattern-solid flowchart-link" id="L_embeddings_supabase_connection_0" d="M1065.724609375,541.5L1065.724609375,571L1065.724609375,583.5Q1065.724609375,596 1074.5190757892312,604.8829815089842L1136.6912235818127,667.6808834171251"/><path marker-end="url(#export-svg_flowchart-v2-pointEnd-margin)" marker-start="url(#export-svg_flowchart-v2-pointStart-margin)" data-points="W3sieCI6MTI1Ny44Mzc4OTA2MjUsInkiOjU0MS41fSx7IngiOjEyNTcuODM3ODkwNjI1LCJ5Ijo1NzF9LHsieCI6MTI1Ny44Mzc4OTA2MjUsInkiOjU5Nn0seyJ4IjoxMTg0LjA1NzA0NzE2NTYzMzMsInkiOjY3MC41MjM0Mzc1fV0=" data-id="L_vector_retriever_supabase_connection_0" data-et="edge" data-edge="true" style="stroke-dasharray: 0 9 132.12554931640625 9; stroke-dashoffset: 0;;" class="edge-thickness-normal edge-pattern-solid edge-thickness-normal edge-pattern-solid flowchart-link" id="L_vector_retriever_supabase_connection_0" d="M1257.837890625,545.5L1257.837890625,571L1257.837890625,583.5Q1257.837890625,596 1249.0434242107688,604.8829815089842L1186.8712764181873,667.6808834171251"/></g><g class="edgeLabels"><g class="edgeLabel"><g transform="translate(0, 0)" data-id="L_clerk_web_ui_0" class="label"><foreignObject height="0" width="0"><div class="labelBkg" xmlns="http://www.w3.org/1999/xhtml" style="display: table-cell; white-space: normal; line-height: 1.5; max-width: 200px; text-align: center;"><span class="edgeLabel"></span></div></foreignObject></g></g><g class="edgeLabel"><g transform="translate(0, 0)" data-id="L_lynx_core_drizzle_orm_0" class="label"><foreignObject height="0" width="0"><div class="labelBkg" xmlns="http://www.w3.org/1999/xhtml" style="display: table-cell; white-space: normal; line-height: 1.5; max-width: 200px; text-align: center;"><span class="edgeLabel"></span></div></foreignObject></g></g><g class="edgeLabel"><g transform="translate(0, 0)" data-id="L_drizzle_orm_dataConnector_0" class="label"><foreignObject height="0" width="0"><div class="labelBkg" xmlns="http://www.w3.org/1999/xhtml" style="display: table-cell; white-space: normal; line-height: 1.5; max-width: 200px; text-align: center;"><span class="edgeLabel"></span></div></foreignObject></g></g><g class="edgeLabel"><g transform="translate(0, 0)" data-id="L_model_router_unified_api_0" class="label"><foreignObject height="0" width="0"><div class="labelBkg" xmlns="http://www.w3.org/1999/xhtml" style="display: table-cell; white-space: normal; line-height: 1.5; max-width: 200px; text-align: center;"><span class="edgeLabel"></span></div></foreignObject></g></g><g class="edgeLabel"><g transform="translate(0, 0)" data-id="L_ai_gateway_unified_api_0" class="label"><foreignObject height="0" width="0"><div class="labelBkg" xmlns="http://www.w3.org/1999/xhtml" style="display: table-cell; white-space: normal; line-height: 1.5; max-width: 200px; text-align: center;"><span class="edgeLabel"></span></div></foreignObject></g></g><g class="edgeLabel"><g transform="translate(0, 0)" data-id="L_web_ui_lynx_core_0" class="label"><foreignObject height="0" width="0"><div class="labelBkg" xmlns="http://www.w3.org/1999/xhtml" style="display: table-cell; white-space: normal; line-height: 1.5; max-width: 200px; text-align: center;"><span class="edgeLabel"></span></div></foreignObject></g></g><g class="edgeLabel"><g transform="translate(0, 0)" data-id="L_web_ui_vercel_0" class="label"><foreignObject height="0" width="0"><div class="labelBkg" xmlns="http://www.w3.org/1999/xhtml" style="display: table-cell; white-space: normal; line-height: 1.5; max-width: 200px; text-align: center;"><span class="edgeLabel"></span></div></foreignObject></g></g><g class="edgeLabel"><g transform="translate(0, 0)" data-id="L_docs_vercel_0" class="label"><foreignObject height="0" width="0"><div class="labelBkg" xmlns="http://www.w3.org/1999/xhtml" style="display: table-cell; white-space: normal; line-height: 1.5; max-width: 200px; text-align: center;"><span class="edgeLabel"></span></div></foreignObject></g></g><g class="edgeLabel"><g transform="translate(0, 0)" data-id="L_dataConnector_datastax_0" class="label"><foreignObject height="0" width="0"><div class="labelBkg" xmlns="http://www.w3.org/1999/xhtml" style="display: table-cell; white-space: normal; line-height: 1.5; max-width: 200px; text-align: center;"><span class="edgeLabel"></span></div></foreignObject></g></g><g class="edgeLabel"><g transform="translate(0, 0)" data-id="L_drizzle_orm_ai_gateway_0" class="label"><foreignObject height="0" width="0"><div class="labelBkg" xmlns="http://www.w3.org/1999/xhtml" style="display: table-cell; white-space: normal; line-height: 1.5; max-width: 200px; text-align: center;"><span class="edgeLabel"></span></div></foreignObject></g></g><g class="edgeLabel"><g transform="translate(0, 0)" data-id="L_supabase_connection_supabase_0" class="label"><foreignObject height="0" width="0"><div class="labelBkg" xmlns="http://www.w3.org/1999/xhtml" style="display: table-cell; white-space: normal; line-height: 1.5; max-width: 200px; text-align: center;"><span class="edgeLabel"></span></div></foreignObject></g></g><g class="edgeLabel"><g transform="translate(0, 0)" data-id="L_parallel_scraper_webpages_0" class="label"><foreignObject height="0" width="0"><div class="labelBkg" xmlns="http://www.w3.org/1999/xhtml" style="display: table-cell; white-space: normal; line-height: 1.5; max-width: 200px; text-align: center;"><span class="edgeLabel"></span></div></foreignObject></g></g><g class="edgeLabel"><g transform="translate(0, 0)" data-id="L_parallel_scraper_document_processor_0" class="label"><foreignObject height="0" width="0"><div class="labelBkg" xmlns="http://www.w3.org/1999/xhtml" style="display: table-cell; white-space: normal; line-height: 1.5; max-width: 200px; text-align: center;"><span class="edgeLabel"></span></div></foreignObject></g></g><g class="edgeLabel"><g transform="translate(0, 0)" data-id="L_document_processor_embeddings_0" class="label"><foreignObject height="0" width="0"><div class="labelBkg" xmlns="http://www.w3.org/1999/xhtml" style="display: table-cell; white-space: normal; line-height: 1.5; max-width: 200px; text-align: center;"><span class="edgeLabel"></span></div></foreignObject></g></g><g class="edgeLabel"><g transform="translate(0, 0)" data-id="L_embeddings_supabase_connection_0" class="label"><foreignObject height="0" width="0"><div class="labelBkg" xmlns="http://www.w3.org/1999/xhtml" style="display: table-cell; white-space: normal; line-height: 1.5; max-width: 200px; text-align: center;"><span class="edgeLabel"></span></div></foreignObject></g></g><g class="edgeLabel"><g transform="translate(0, 0)" data-id="L_vector_retriever_supabase_connection_0" class="label"><foreignObject height="0" width="0"><div class="labelBkg" xmlns="http://www.w3.org/1999/xhtml" style="display: table-cell; white-space: normal; line-height: 1.5; max-width: 200px; text-align: center;"><span class="edgeLabel"></span></div></foreignObject></g></g></g><g class="nodes"><g transform="translate(629.8203125, 264.5)" data-look="neo" data-et="node" data-node="true" data-id="web_ui" id="flowchart-web_ui-0" class="node default"><g class="basic label-container outer-path"><g><path style="" stroke-opacity="1" stroke-width="1.3" stroke="#ccc" fill-opacity="1" fill="#2a2020" d="M-61.41015625 -12.5 C-61.41015625 -2.424635524255306, -61.41015625 7.650728951489388, -61.41015625 32.5 C-30.514955547215926 32.5, 0.3802451555681472 32.5, 41.41015625 32.5 C41.41015625 29.249225211356016, 41.41015625 25.998450422712033, 41.41015625 22.5 C45.21295572702523 22.5, 49.015755204050464 22.5, 51.41015625 22.5 C51.41015625 20.04481050489335, 51.41015625 17.5896210097867, 51.41015625 12.5 C54.005990634194056 12.5, 56.60182501838811 12.5, 61.41015625 12.5 C61.41015625 -2.230467919005653, 61.41015625 -16.960935838011306, 61.41015625 -32.5 C36.22337686897434 -32.5, 11.036597487948676 -32.5, -41.41015625 -32.5 C-41.41015625 -30.272888903928585, -41.41015625 -28.04577780785717, -41.41015625 -22.5 C-43.94123965470923 -22.5, -46.47232305941846 -22.5, -51.41015625 -22.5 C-51.41015625 -19.792232778342083, -51.41015625 -17.08446555668417, -51.41015625 -12.5 C-53.46728613289169 -12.5, -55.52441601578338 -12.5, -61.41015625 -12.5 M-61.41015625 -12.5 C-61.41015625 1.9906008218547715, -61.41015625 16.481201643709543, -61.41015625 32.5 M-61.41015625 -12.5 C-61.41015625 -0.4850439090037515, -61.41015625 11.529912181992497, -61.41015625 32.5 M-61.41015625 32.5 C-21.809410740926545 32.5, 17.79133476814691 32.5, 41.41015625 32.5 M-61.41015625 32.5 C-38.855618215701156 32.5, -16.30108018140232 32.5, 41.41015625 32.5 M41.41015625 32.5 C41.41015625 29.203151051873913, 41.41015625 25.906302103747826, 41.41015625 22.5 M41.41015625 32.5 C41.41015625 30.481035154056986, 41.41015625 28.462070308113972, 41.41015625 22.5 M41.41015625 22.5 C45.36982885708647 22.5, 49.329501464172935 22.5, 51.41015625 22.5 M41.41015625 22.5 C43.49257551983341 22.5, 45.57499478966682 22.5, 51.41015625 22.5 M51.41015625 22.5 C51.41015625 18.89021890155848, 51.41015625 15.280437803116962, 51.41015625 12.5 M51.41015625 22.5 C51.41015625 20.416727130768855, 51.41015625 18.33345426153771, 51.41015625 12.5 M51.41015625 12.5 C55.22176328378948 12.5, 59.03337031757896 12.5, 61.41015625 12.5 M51.41015625 12.5 C53.76939299544473 12.5, 56.128629740889465 12.5, 61.41015625 12.5 M61.41015625 12.5 C61.41015625 -3.178172141375825, 61.41015625 -18.85634428275165, 61.41015625 -32.5 M61.41015625 12.5 C61.41015625 -1.601540576888885, 61.41015625 -15.70308115377777, 61.41015625 -32.5 M61.41015625 -32.5 C25.824577933757055 -32.5, -9.76100038248589 -32.5, -41.41015625 -32.5 M61.41015625 -32.5 C22.938246348313463 -32.5, -15.533663553373074 -32.5, -41.41015625 -32.5 M-41.41015625 -32.5 C-41.41015625 -29.020042910071354, -41.41015625 -25.540085820142707, -41.41015625 -22.5 M-41.41015625 -32.5 C-41.41015625 -28.916770911603052, -41.41015625 -25.333541823206108, -41.41015625 -22.5 M-41.41015625 -22.5 C-44.9199447439642 -22.5, -48.4297332379284 -22.5, -51.41015625 -22.5 M-41.41015625 -22.5 C-44.85410932952393 -22.5, -48.29806240904786 -22.5, -51.41015625 -22.5 M-51.41015625 -22.5 C-51.41015625 -19.94623945505176, -51.41015625 -17.392478910103517, -51.41015625 -12.5 M-51.41015625 -22.5 C-51.41015625 -19.794871473957446, -51.41015625 -17.08974294791489, -51.41015625 -12.5 M-51.41015625 -12.5 C-55.327839490233686 -12.5, -59.24552273046737 -12.5, -61.41015625 -12.5 M-51.41015625 -12.5 C-54.93493867025653 -12.5, -58.459721090513064 -12.5, -61.41015625 -12.5"/></g><g><path style="" stroke-opacity="1" stroke-width="1.3" stroke="#ccc" fill-opacity="1" fill="#2a2020" d="M-51.41015625 -12.5 C-20.00924798243063 -12.5, 11.391660285138741 -12.5, 41.41015625 -12.5 C41.41015625 0.23223614064633225, 41.41015625 12.964472281292664, 41.41015625 22.5 C44.776889554332804 22.5, 48.14362285866561 22.5, 51.41015625 22.5 C51.41015625 10.155943147036188, 51.41015625 -2.1881137059276234, 51.41015625 -22.5 C29.63629489002553 -22.5, 7.862433530051057 -22.5, -51.41015625 -22.5 C-51.41015625 -18.645496393703798, -51.41015625 -14.790992787407596, -51.41015625 -12.5 M-51.41015625 -12.5 C-22.232992559839424 -12.5, 6.944171130321152 -12.5, 41.41015625 -12.5 M-51.41015625 -12.5 C-20.095998163037585 -12.5, 11.21815992392483 -12.5, 41.41015625 -12.5 M41.41015625 -12.5 C41.41015625 -3.468624359699712, 41.41015625 5.562751280600576, 41.41015625 22.5 M41.41015625 -12.5 C41.41015625 -1.337120880662681, 41.41015625 9.825758238674638, 41.41015625 22.5 M41.41015625 22.5 C45.361757433593446 22.5, 49.31335861718689 22.5, 51.41015625 22.5 M41.41015625 22.5 C45.36253679863394 22.5, 49.31491734726789 22.5, 51.41015625 22.5 M51.41015625 22.5 C51.41015625 10.758560136075616, 51.41015625 -0.9828797278487684, 51.41015625 -22.5 M51.41015625 22.5 C51.41015625 10.942955350966317, 51.41015625 -0.6140892980673662, 51.41015625 -22.5 M51.41015625 -22.5 C25.565159287526008 -22.5, -0.2798376749479843 -22.5, -51.41015625 -22.5 M51.41015625 -22.5 C30.661045964282412 -22.5, 9.911935678564824 -22.5, -51.41015625 -22.5 M-51.41015625 -22.5 C-51.41015625 -19.796854632610568, -51.41015625 -17.09370926522114, -51.41015625 -12.5 M-51.41015625 -22.5 C-51.41015625 -19.39251123337606, -51.41015625 -16.285022466752118, -51.41015625 -12.5"/></g></g><g transform="translate(-45.41015625, -0.5)" style="" class="label"><rect/><foreignObject height="21" width="70.8203125"><div xmlns="http://www.w3.org/1999/xhtml" style="display: table-cell; white-space: normal; line-height: 1.5; max-width: 200px; text-align: center;"><span class="nodeLabel"><p>Next.js App</p></span></div></foreignObject></g></g><g transform="translate(629.8203125, 107.5)" data-look="neo" data-et="node" data-node="true" data-id="clerk" id="flowchart-clerk-1" class="node default"><g transform="translate(0, 16.5)" class="basic label-container outer-path"><path style="" fill="#2a2020" stroke-width="0" stroke="none" d="M-56.859375 -33 C-56.859375 -6.893975768549872, -56.859375 19.212048462900256, -56.859375 33 C-29.4194158523631 33, -1.9794567047262035 33, 56.859375 33 C56.859375 0.27354173586003583, 56.859375 -32.45291652827993, 56.859375 -66 C19.260914042388514 -55.08931718295199, -18.337546915222973 -44.17863436590397, -56.859375 -33"/><path style="" fill="none" stroke-width="1.3" stroke="#ccc" d="M-56.859375 -33 C-56.859375 -14.054010206149815, -56.859375 4.891979587700369, -56.859375 33 M-56.859375 -33 C-56.859375 -11.244739416260956, -56.859375 10.510521167478089, -56.859375 33 M-56.859375 33 C-32.19947967567581 33, -7.539584351351621 33, 56.859375 33 M-56.859375 33 C-27.1875171364139 33, 2.484340727172203 33, 56.859375 33 M56.859375 33 C56.859375 4.160581217133135, 56.859375 -24.67883756573373, 56.859375 -66 M56.859375 33 C56.859375 4.8176286657989245, 56.859375 -23.36474266840215, 56.859375 -66 M56.859375 -66 C12.288243999728643 -53.0659207649666, -32.282887000542715 -40.1318415299332, -56.859375 -33 M56.859375 -66 C22.56364447802047 -56.04773524836209, -11.732086043959058 -46.09547049672417, -56.859375 -33"/></g><g transform="translate(-40.859375, -4.5)" style="" class="label"><rect/><foreignObject height="42" width="81.71875"><div xmlns="http://www.w3.org/1999/xhtml" style="display: table-cell; white-space: normal; line-height: 1.5; max-width: 200px; text-align: center;"><span class="nodeLabel"><p>Clerk <br />Authorization</p></span></div></foreignObject></g></g><g transform="translate(831.19140625, 693.0234375)" data-look="neo" data-et="node" data-node="true" data-id="docs" id="flowchart-docs-2" class="node default"><g class="basic label-container outer-path"><g><path style="" stroke-opacity="1" stroke-width="1.3" stroke="#ccc" fill-opacity="1" fill="#2a2020" d="M-61.41015625 -12.5 C-61.41015625 4.5576802534085346, -61.41015625 21.61536050681707, -61.41015625 32.5 C-32.45372176229602 32.5, -3.49728727459204 32.5, 41.41015625 32.5 C41.41015625 28.89930445515336, 41.41015625 25.29860891030672, 41.41015625 22.5 C44.00015565914285 22.5, 46.59015506828569 22.5, 51.41015625 22.5 C51.41015625 19.79874004934248, 51.41015625 17.09748009868496, 51.41015625 12.5 C53.849285400381774 12.5, 56.28841455076354 12.5, 61.41015625 12.5 C61.41015625 2.847043737304549, 61.41015625 -6.805912525390902, 61.41015625 -32.5 C40.814621152989545 -32.5, 20.219086055979083 -32.5, -41.41015625 -32.5 C-41.41015625 -28.73358645658825, -41.41015625 -24.9671729131765, -41.41015625 -22.5 C-44.61069377781641 -22.5, -47.81123130563281 -22.5, -51.41015625 -22.5 C-51.41015625 -18.998863850361396, -51.41015625 -15.497727700722788, -51.41015625 -12.5 C-54.93345564148473 -12.5, -58.456755032969454 -12.5, -61.41015625 -12.5 M-61.41015625 -12.5 C-61.41015625 0.2917573038921226, -61.41015625 13.083514607784245, -61.41015625 32.5 M-61.41015625 -12.5 C-61.41015625 -0.8661472038980342, -61.41015625 10.767705592203932, -61.41015625 32.5 M-61.41015625 32.5 C-36.45975223858873 32.5, -11.509348227177455 32.5, 41.41015625 32.5 M-61.41015625 32.5 C-34.72916210366391 32.5, -8.048167957327827 32.5, 41.41015625 32.5 M41.41015625 32.5 C41.41015625 29.189849885663893, 41.41015625 25.879699771327783, 41.41015625 22.5 M41.41015625 32.5 C41.41015625 28.848642450362526, 41.41015625 25.197284900725055, 41.41015625 22.5 M41.41015625 22.5 C45.03555624533708 22.5, 48.66095624067415 22.5, 51.41015625 22.5 M41.41015625 22.5 C45.26646708584067 22.5, 49.122777921681326 22.5, 51.41015625 22.5 M51.41015625 22.5 C51.41015625 19.259626616995348, 51.41015625 16.0192532339907, 51.41015625 12.5 M51.41015625 22.5 C51.41015625 20.39222984561946, 51.41015625 18.284459691238922, 51.41015625 12.5 M51.41015625 12.5 C54.59137030604741 12.5, 57.772584362094825 12.5, 61.41015625 12.5 M51.41015625 12.5 C54.107280091791736 12.5, 56.804403933583465 12.5, 61.41015625 12.5 M61.41015625 12.5 C61.41015625 -0.9129733704436767, 61.41015625 -14.325946740887353, 61.41015625 -32.5 M61.41015625 12.5 C61.41015625 -4.370303977911021, 61.41015625 -21.240607955822043, 61.41015625 -32.5 M61.41015625 -32.5 C36.597840983678374 -32.5, 11.785525717356748 -32.5, -41.41015625 -32.5 M61.41015625 -32.5 C28.337034213706346 -32.5, -4.736087822587308 -32.5, -41.41015625 -32.5 M-41.41015625 -32.5 C-41.41015625 -30.42197973033429, -41.41015625 -28.343959460668575, -41.41015625 -22.5 M-41.41015625 -32.5 C-41.41015625 -28.977390165786062, -41.41015625 -25.454780331572124, -41.41015625 -22.5 M-41.41015625 -22.5 C-43.971454449333145 -22.5, -46.53275264866629 -22.5, -51.41015625 -22.5 M-41.41015625 -22.5 C-44.425120238605764 -22.5, -47.44008422721153 -22.5, -51.41015625 -22.5 M-51.41015625 -22.5 C-51.41015625 -20.292158270997376, -51.41015625 -18.084316541994752, -51.41015625 -12.5 M-51.41015625 -22.5 C-51.41015625 -20.349067997978416, -51.41015625 -18.19813599595683, -51.41015625 -12.5 M-51.41015625 -12.5 C-53.86576323770424 -12.5, -56.321370225408494 -12.5, -61.41015625 -12.5 M-51.41015625 -12.5 C-54.23962050371565 -12.5, -57.0690847574313 -12.5, -61.41015625 -12.5"/></g><g><path style="" stroke-opacity="1" stroke-width="1.3" stroke="#ccc" fill-opacity="1" fill="#2a2020" d="M-51.41015625 -12.5 C-15.773412464511836 -12.5, 19.86333132097633 -12.5, 41.41015625 -12.5 C41.41015625 -1.8350991981513243, 41.41015625 8.829801603697351, 41.41015625 22.5 C43.717075481205946 22.5, 46.0239947124119 22.5, 51.41015625 22.5 C51.41015625 12.393195801865527, 51.41015625 2.2863916037310545, 51.41015625 -22.5 C25.70686581369626 -22.5, 0.0035753773925222276 -22.5, -51.41015625 -22.5 C-51.41015625 -19.988655325028905, -51.41015625 -17.47731065005781, -51.41015625 -12.5 M-51.41015625 -12.5 C-15.08217142277364 -12.5, 21.24581340445272 -12.5, 41.41015625 -12.5 M-51.41015625 -12.5 C-29.966744971038906 -12.5, -8.523333692077813 -12.5, 41.41015625 -12.5 M41.41015625 -12.5 C41.41015625 -1.7288201521268576, 41.41015625 9.042359695746285, 41.41015625 22.5 M41.41015625 -12.5 C41.41015625 -2.5422292883148128, 41.41015625 7.4155414233703745, 41.41015625 22.5 M41.41015625 22.5 C44.409228304321346 22.5, 47.4083003586427 22.5, 51.41015625 22.5 M41.41015625 22.5 C45.37237735449645 22.5, 49.3345984589929 22.5, 51.41015625 22.5 M51.41015625 22.5 C51.41015625 11.483119567356606, 51.41015625 0.4662391347132129, 51.41015625 -22.5 M51.41015625 22.5 C51.41015625 11.76914536244504, 51.41015625 1.0382907248900786, 51.41015625 -22.5 M51.41015625 -22.5 C16.258331435803903 -22.5, -18.893493378392193 -22.5, -51.41015625 -22.5 M51.41015625 -22.5 C18.068996726028743 -22.5, -15.272162797942514 -22.5, -51.41015625 -22.5 M-51.41015625 -22.5 C-51.41015625 -19.064813542629945, -51.41015625 -15.62962708525989, -51.41015625 -12.5 M-51.41015625 -22.5 C-51.41015625 -19.490914651845173, -51.41015625 -16.48182930369035, -51.41015625 -12.5"/></g></g><g transform="translate(-45.41015625, -0.5)" style="" class="label"><rect/><foreignObject height="21" width="70.8203125"><div xmlns="http://www.w3.org/1999/xhtml" style="display: table-cell; white-space: normal; line-height: 1.5; max-width: 200px; text-align: center;"><span class="nodeLabel"><p>Next.js App</p></span></div></foreignObject></g></g><g transform="translate(554.859375, 519)" data-look="neo" data-et="node" data-node="true" data-id="drizzle_orm" id="flowchart-drizzle_orm-3" class="node default"><polygon transform="translate(-35.390625,27)" class="label-container" points="0,0 70.78125,0 70.78125,-54 0,-54 0,0 -8,0 78.78125,0 78.78125,-54 -8,-54 -8,0"/><g transform="translate(-21.390625, -21)" style="" class="label"><rect/><foreignObject height="42" width="42.78125"><div xmlns="http://www.w3.org/1999/xhtml" style="display: table-cell; white-space: normal; line-height: 1.5; max-width: 200px; text-align: center;"><span class="nodeLabel"><p>Drizzle <br />ORM</p></span></div></foreignObject></g></g><g transform="translate(554.859375, 419.5)" data-look="neo" data-et="node" data-node="true" data-id="lynx_core" id="flowchart-lynx_core-4" class="node default"><polygon transform="translate(-39.3515625,22.5)" class="label-container" points="-22.5,0 78.703125,0 101.203125,-45 0,-45"/><g transform="translate(-30.3515625, -10.5)" style="" class="label"><rect/><foreignObject height="21" width="60.703125"><div xmlns="http://www.w3.org/1999/xhtml" style="display: table-cell; white-space: normal; line-height: 1.5; max-width: 200px; text-align: center;"><span class="nodeLabel"><p>LangFlow</p></span></div></foreignObject></g></g><g transform="translate(564.859375, 693.0234375)" data-look="neo" data-et="node" data-node="true" data-id="dataConnector" id="flowchart-dataConnector-5" class="node default"><polygon transform="translate(-72.421875,22.5)" class="label-container" points="0,0 167.34375,0 144.84375,-45 -22.5,-45"/><g transform="translate(-63.421875, -10.5)" style="" class="label"><rect/><foreignObject height="21" width="126.84375"><div xmlns="http://www.w3.org/1999/xhtml" style="display: table-cell; white-space: normal; line-height: 1.5; max-width: 200px; text-align: center;"><span class="nodeLabel"><p>AstraDB Connection</p></span></div></foreignObject></g></g><g transform="translate(225.375, 902.692024230957)" data-look="neo" data-et="node" data-node="true" data-id="unified_api" id="flowchart-unified_api-6" class="node default"><polygon transform="translate(-51.8046875,22.5)" class="label-container" points="0,0 126.109375,0 103.609375,-45 -22.5,-45"/><g transform="translate(-42.8046875, -10.5)" style="" class="label"><rect/><foreignObject height="21" width="85.609375"><div xmlns="http://www.w3.org/1999/xhtml" style="display: table-cell; white-space: normal; line-height: 1.5; max-width: 200px; text-align: center;"><span class="nodeLabel"><p>Unified AI API</p></span></div></foreignObject></g></g><g transform="translate(314.5859375, 693.0234375)" data-look="neo" data-et="node" data-node="true" data-id="ai_gateway" id="flowchart-ai_gateway-7" class="node default"><polygon transform="translate(-33.8984375,22.5)" class="label-container" points="-22.5,0 67.796875,0 90.296875,-45 0,-45"/><g transform="translate(-24.8984375, -10.5)" style="" class="label"><rect/><foreignObject height="21" width="49.796875"><div xmlns="http://www.w3.org/1999/xhtml" style="display: table-cell; white-space: normal; line-height: 1.5; max-width: 200px; text-align: center;"><span class="nodeLabel"><p>FastAPI</p></span></div></foreignObject></g></g><g transform="translate(136.1640625, 693.0234375)" data-look="neo" data-et="node" data-node="true" data-id="model_router" id="flowchart-model_router-8" class="node default"><polygon transform="translate(-72.0234375,72.0234375)" class="label-container" points="72.0234375,0 144.046875,-72.0234375 72.0234375,-144.046875 0,-72.0234375"/><g transform="translate(-42.0234375, -21)" style="" class="label"><rect/><foreignObject height="42" width="84.046875"><div xmlns="http://www.w3.org/1999/xhtml" style="display: table-cell; white-space: normal; line-height: 1.5; max-width: 200px; text-align: center;"><span class="nodeLabel"><p>Intelligent <br />Model Router</p></span></div></foreignObject></g></g><g transform="translate(1161.78125, 693.0234375)" data-look="neo" data-et="node" data-node="true" data-id="supabase_connection" id="flowchart-supabase_connection-9" class="node default"><rect stroke="url(#gradient)" height="45" width="169.7734375" y="-22.5" x="-84.88671875" data-id="supabase_connection" style="" class="basic label-container"/><g transform="translate(-68.88671875, -10.5)" style="" class="label"><rect/><foreignObject height="21" width="137.7734375"><div xmlns="http://www.w3.org/1999/xhtml" style="display: table-cell; white-space: normal; line-height: 1.5; max-width: 200px; text-align: center;"><span class="nodeLabel"><p>Supabase Connection</p></span></div></foreignObject></g></g><g transform="translate(1221.724609375, 264.5)" data-look="neo" data-et="node" data-node="true" data-id="parallel_scraper" id="flowchart-parallel_scraper-10" class="node default"><rect stroke="url(#gradient)" height="45" width="157.2890625" y="-22.5" x="-78.64453125" data-id="parallel_scraper" style="" class="basic label-container"/><g transform="translate(-62.64453125, -10.5)" style="" class="label"><rect/><foreignObject height="21" width="125.2890625"><div xmlns="http://www.w3.org/1999/xhtml" style="display: table-cell; white-space: normal; line-height: 1.5; max-width: 200px; text-align: center;"><span class="nodeLabel"><p>Parallelized Scraper</p></span></div></foreignObject></g></g><g transform="translate(1065.724609375, 419.5)" data-look="neo" data-et="node" data-node="true" data-id="document_processor" id="flowchart-document_processor-11" class="node default"><rect stroke="url(#gradient)" height="45" width="162.71875" y="-22.5" x="-81.359375" data-id="document_processor" style="" class="basic label-container"/><g transform="translate(-65.359375, -10.5)" style="" class="label"><rect/><foreignObject height="21" width="130.71875"><div xmlns="http://www.w3.org/1999/xhtml" style="display: table-cell; white-space: normal; line-height: 1.5; max-width: 200px; text-align: center;"><span class="nodeLabel"><p>Document Processor</p></span></div></foreignObject></g></g><g transform="translate(1065.724609375, 519)" data-look="neo" data-et="node" data-node="true" data-id="embeddings" id="flowchart-embeddings-12" class="node default"><rect stroke="url(#gradient)" height="45" width="151.8515625" y="-22.5" x="-75.92578125" data-id="embeddings" style="" class="basic label-container"/><g transform="translate(-59.92578125, -10.5)" style="" class="label"><rect/><foreignObject height="21" width="119.8515625"><div xmlns="http://www.w3.org/1999/xhtml" style="display: table-cell; white-space: normal; line-height: 1.5; max-width: 200px; text-align: center;"><span class="nodeLabel"><p>Embeddings Model</p></span></div></foreignObject></g></g><g transform="translate(1257.837890625, 519)" data-look="neo" data-et="node" data-node="true" data-id="vector_retriever" id="flowchart-vector_retriever-13" class="node default"><rect stroke="url(#gradient)" height="45" width="132.375" y="-22.5" x="-66.1875" data-id="vector_retriever" style="" class="basic label-container"/><g transform="translate(-50.1875, -10.5)" style="" class="label"><rect/><foreignObject height="21" width="100.375"><div xmlns="http://www.w3.org/1999/xhtml" style="display: table-cell; white-space: normal; line-height: 1.5; max-width: 200px; text-align: center;"><span class="nodeLabel"><p>Vector Retriever</p></span></div></foreignObject></g></g><g transform="translate(1550.990234375, 902.692024230957)" data-look="neo" data-et="node" data-node="true" data-id="datastax" id="flowchart-datastax-19" class="node default"><path transform="translate(-40.79296875, -37.30968498279318)" style="" class="basic label-container outer-path" d="M0,9.873123321862119 a40.79296875,9.873123321862119 0,0,0 81.5859375,0 a40.79296875,9.873123321862119 0,0,0 -81.5859375,0 l0,54.87312332186212 a40.79296875,9.873123321862119 0,0,0 81.5859375,0 l0,-54.87312332186212"/><g transform="translate(-28.79296875, -3)" style="" class="label"><rect/><foreignObject height="21" width="57.5859375"><div xmlns="http://www.w3.org/1999/xhtml" style="display: table-cell; white-space: normal; line-height: 1.5; max-width: 200px; text-align: center;"><span class="nodeLabel"><p>DataStax</p></span></div></foreignObject></g></g><g transform="translate(1681.2344551086426, 902.692024230957)" data-look="neo" data-et="node" data-node="true" data-id="vercel" id="flowchart-vercel-20" class="node default"><g transform="translate(-39.45703125, -22.5)" class="basic label-container outer-path"><path style="" fill="#2a2020" stroke-width="0" stroke="none" d="M56.4140625 0 C41.90063475445225 0, 27.387207008904493 0, 11.25 0 C7.526201336707208 7.447597326585583, 3.8024026734144174 14.895194653171165, 0 22.5 C2.6772928549780532 27.854585709956105, 5.3545857099561065 33.20917141991221, 11.25 45 C23.39113099617417 45, 35.53226199234834 45, 56.4140625 45 C56.4140625 45, 56.41406250000001 45, 56.41406250000001 45 C56.839774940023354 44.98634823064745, 57.26548738004669 44.972696461294895, 57.85564244956604 44.95377133688257 C58.33222007798097 44.90779646623783, 58.80879770639591 44.8618215955931, 59.2912986379014 44.815275311023036 C59.70818128382617 44.74787695780312, 60.125063929750944 44.680478604583215, 60.715131645780886 44.58508103229897 C61.02134572753421 44.5151896663724, 61.327559809287536 44.445298300445835, 62.12129063796392 44.26413441837816 C62.50254393225441 44.15098044187212, 62.88379722654491 44.03782646536609, 63.503997405531464 43.85375430774005 C63.90013511617711 43.70797196836559, 64.29627282682276 43.562189628991135, 64.85757010978593 43.35562704028548 C65.37205710707761 43.12787890829899, 65.88654410436928 42.90013077631249, 66.17644663014507 42.77179952780443 C66.43809194905008 42.635299332523516, 66.69973726795507 42.4987991372426, 67.4552074200886 42.10467084277626 C67.71738962587804 41.94573444887303, 67.97957183166749 41.78679805496981, 68.68859777723733 41.35698236006642 C69.07222269962853 41.08938222106156, 69.45584762201972 40.8217820820567, 69.87154943605236 40.53180649202902 C70.25623178481052 40.22503255572161, 70.64091413356869 39.918258619414196, 70.99920139442524 39.63253406330553 C71.40477602025588 39.26420191904271, 71.8103506460865 38.89586977477989, 72.06691988857845 38.66286037719887 C72.28192894227624 38.4408458766843, 72.49693799597402 38.21883137616974, 73.0703174341946 37.62677003087963 C73.36623151063618 37.2791725187034, 73.66214558707776 36.93157500652717, 74.00527085553067 36.5285205418215 C74.2723139338006 36.17070714506471, 74.53935701207052 35.812893748307914, 74.86793822843151 35.37262485274882 C75.06168026278993 35.07498506095358, 75.25542229714836 34.77734526915834, 75.65477466762029 34.16383278698681 C75.91247547222935 33.70625891336731, 76.1701762768384 33.248685039747805, 76.3625468933925 32.90711153041879 C76.57036389343787 32.47557508325311, 76.77818089348324 32.04403863608743, 76.98834651785577 31.60762522025386 C77.10290792279623 31.324656335156845, 77.2174693277367 31.041687450059836, 77.52960199611961 30.270713724479428 C77.65285344704535 29.899499991742985, 77.7761048979711 29.528286259006542, 77.98408919332486 28.90187069919823 C78.10707635247047 28.432867358404096, 78.23006351161608 27.96386401760996, 78.34994052409104 27.50672101401707 C78.40595540195778 27.21909645491999, 78.46197027982451 26.93147189582291, 78.62565262682513 26.090997638251036 C78.68090092500294 25.662502747594377, 78.73614922318076 25.234007856937716, 78.81009254135697 24.660518082922838 C78.84316720144261 24.145353554703767, 78.87624186152826 23.630189026484697, 78.90250236451547 23.221160495362234 C78.90250236451547 22.775739902532084, 78.90250236451547 22.330319309701935, 78.90250236451547 21.77883950463776 C78.8694729886605 21.264380314864187, 78.83644361280552 20.74992112509062, 78.81009254135697 20.339481917077165 C78.77202106653482 20.044207076419667, 78.73394959171267 19.748932235762172, 78.62565262682513 18.909002361748968 C78.51662577790222 18.349172535362495, 78.40759892897931 17.789342708976026, 78.34994052409104 17.493278985982926 C78.26151631302842 17.156079145905707, 78.17309210196582 16.818879305828492, 77.98408919332486 16.098129300801773 C77.82901822764607 15.631080259380328, 77.67394726196729 15.164031217958884, 77.52960199611961 14.729286275520579 C77.38674110940583 14.376417123310212, 77.24388022269206 14.023547971099847, 76.98834651785577 13.392374779746135 C76.7539992844181 12.905747735285273, 76.51965205098043 12.41912069082441, 76.3625468933925 12.092888469581206 C76.13117935030256 11.682071968320784, 75.89981180721263 11.27125546706036, 75.65477466762029 10.836167213013184 C75.45789532916046 10.53370767963408, 75.26101599070063 10.231248146254977, 74.86793822843151 9.627375147251184 C74.60335867539257 9.272862649872145, 74.33877912235363 8.918350152493108, 74.00527085553067 8.471479458178495 C73.7295117070396 8.147557071220831, 73.45375255854854 7.823634684263168, 73.0703174341946 7.373229969120375 C72.76174474298516 7.054603331157522, 72.45317205177571 6.735976693194669, 72.06691988857844 6.3371396228011285 C71.85038605613984 6.140489325351648, 71.63385222370124 5.943839027902168, 70.99920139442524 5.3674659366944795 C70.73025788231482 5.152990642673844, 70.46131437020439 4.938515348653208, 69.87154943605236 4.468193507970977 C69.5881225166766 4.27048715836804, 69.30469559730085 4.072780808765103, 68.68859777723735 3.643017639933589 C68.33852595894093 3.4308020464319444, 67.9884541406445 3.2185864529302997, 67.4552074200886 2.895329157223742 C67.07901558943225 2.699070120132692, 66.7028237587759 2.502811083041643, 66.17644663014505 2.228200472195571 C65.85015119550185 2.0837591624891934, 65.52385576085867 1.9393178527828157, 64.85757010978593 1.6443729597145094 C64.38318904348004 1.4697963421834421, 63.90880797717417 1.295219724652375, 63.503997405531464 1.1462456922599564 C63.188657064842296 1.0526543343986368, 62.87331672415313 0.959062976537317, 62.121290637963924 0.7358655816218409 C61.74196187838717 0.6492862675999374, 61.36263311881042 0.5627069535780338, 60.71513164578088 0.41491896770103054 C60.17735169035259 0.3279748750532258, 59.639571734924296 0.2410307824054211, 59.29129863790139 0.1847246889769636 C58.903838099664775 0.14734683684275052, 58.51637756142815 0.10996898470853742, 57.85564244956604 0.046228663117432234 C57.53568307119423 0.03596818861619753, 57.215723692822415 0.025707714114962824, 56.4140625 0 C56.4140625 0, 56.4140625 0, 56.4140625 0"/><path style="" fill="none" stroke-width="1.3" stroke="#ccc" d="M56.4140625 0 C44.695874800211186 0, 32.97768710042238 0, 11.25 0 M56.4140625 0 C45.278566010856096 0, 34.14306952171219 0, 11.25 0 M11.25 0 C7.538439855801258 7.423120288397484, 3.8268797116025164 14.846240576794967, 0 22.5 M11.25 0 C8.877245970626294 4.74550805874741, 6.50449194125259 9.49101611749482, 0 22.5 M0 22.5 C3.5374952147474366 29.574990429494875, 7.074990429494873 36.64998085898975, 11.25 45 M0 22.5 C2.3004926123582194 27.10098522471644, 4.600985224716439 31.701970449432878, 11.25 45 M11.25 45 C23.85557414477046 45, 36.46114828954092 45, 56.4140625 45 M11.25 45 C28.7704525414581 45, 46.2909050829162 45, 56.4140625 45 M56.4140625 45 C56.4140625 45, 56.41406250000001 45, 56.41406250000001 45 M56.4140625 45 C56.4140625 45, 56.41406250000001 45, 56.41406250000001 45 M56.41406250000001 45 C56.92782704291489 44.98352457109074, 57.44159158582978 44.96704914218147, 57.85564244956604 44.95377133688257 M56.41406250000001 45 C56.925842900091126 44.9835881986892, 57.43762330018224 44.96717639737839, 57.85564244956604 44.95377133688257 M57.85564244956604 44.95377133688257 C58.24233216864475 44.91646784474547, 58.62902188772347 44.87916435260838, 59.2912986379014 44.815275311023036 M57.85564244956604 44.95377133688257 C58.25127336674167 44.91560529811843, 58.64690428391731 44.87743925935428, 59.2912986379014 44.815275311023036 M59.2912986379014 44.815275311023036 C59.77368224771358 44.73728726992937, 60.256065857525755 44.6592992288357, 60.715131645780886 44.58508103229897 M59.2912986379014 44.815275311023036 C59.64607695426112 44.75791750418093, 60.00085527062083 44.70055969733883, 60.715131645780886 44.58508103229897 M60.715131645780886 44.58508103229897 C61.24775265000305 44.46351376376214, 61.78037365422521 44.341946495225294, 62.12129063796392 44.26413441837816 M60.715131645780886 44.58508103229897 C61.21617247682987 44.47072173220902, 61.71721330787886 44.35636243211907, 62.12129063796392 44.26413441837816 M62.12129063796392 44.26413441837816 C62.459253232606876 44.16382889428999, 62.79721582724983 44.06352337020182, 63.503997405531464 43.85375430774005 M62.12129063796392 44.26413441837816 C62.56078884551165 44.13369365735116, 63.000287053059395 44.00325289632416, 63.503997405531464 43.85375430774005 M63.503997405531464 43.85375430774005 C63.932201981023105 43.696171065679415, 64.36040655651475 43.53858782361878, 64.85757010978593 43.35562704028548 M63.503997405531464 43.85375430774005 C63.912282371852285 43.70350166598913, 64.3205673381731 43.553249024238205, 64.85757010978593 43.35562704028548 M64.85757010978593 43.35562704028548 C65.21808107835552 43.196039528677645, 65.57859204692512 43.0364520170698, 66.17644663014507 42.77179952780443 M64.85757010978593 43.35562704028548 C65.21020201033623 43.19952735836553, 65.56283391088655 43.04342767644558, 66.17644663014507 42.77179952780443 M66.17644663014507 42.77179952780443 C66.53811415741826 42.583117810485106, 66.89978168469146 42.39443609316579, 67.4552074200886 42.10467084277626 M66.17644663014507 42.77179952780443 C66.50271440662186 42.601585837800975, 66.82898218309865 42.43137214779751, 67.4552074200886 42.10467084277626 M67.4552074200886 42.10467084277626 C67.89146137527504 41.84021113142943, 68.32771533046149 41.5757514200826, 68.68859777723733 41.35698236006642 M67.4552074200886 42.10467084277626 C67.85048193735899 41.86505310751605, 68.24575645462939 41.62543537225583, 68.68859777723733 41.35698236006642 M68.68859777723733 41.35698236006642 C69.01189847869819 41.13146178618913, 69.33519918015904 40.90594121231184, 69.87154943605236 40.53180649202902 M68.68859777723733 41.35698236006642 C69.04915028280492 41.10547654024888, 69.40970278837251 40.853970720431334, 69.87154943605236 40.53180649202902 M69.87154943605236 40.53180649202902 C70.20124919376441 40.26887970893269, 70.53094895147646 40.00595292583636, 70.99920139442524 39.63253406330553 M69.87154943605236 40.53180649202902 C70.22113566899698 40.25302077413605, 70.57072190194158 39.974235056243074, 70.99920139442524 39.63253406330553 M70.99920139442524 39.63253406330553 C71.32572162866623 39.335997025819836, 71.65224186290723 39.039459988334144, 72.06691988857845 38.66286037719887 M70.99920139442524 39.63253406330553 C71.30341440946813 39.35625585207888, 71.60762742451102 39.079977640852235, 72.06691988857845 38.66286037719887 M72.06691988857845 38.66286037719887 C72.39908371840176 38.319873951748704, 72.73124754822507 37.97688752629853, 73.0703174341946 37.62677003087963 M72.06691988857845 38.66286037719887 C72.46754883469895 38.249178098081266, 72.86817778081944 37.83549581896367, 73.0703174341946 37.62677003087963 M73.0703174341946 37.62677003087963 C73.33861818519591 37.31160870200827, 73.6069189361972 36.996447373136924, 74.00527085553067 36.5285205418215 M73.0703174341946 37.62677003087963 C73.28465101945149 37.3750016057104, 73.49898460470835 37.12323318054118, 74.00527085553067 36.5285205418215 M74.00527085553067 36.5285205418215 C74.32753345979116 36.09671801083966, 74.64979606405166 35.664915479857825, 74.86793822843151 35.37262485274882 M74.00527085553067 36.5285205418215 C74.21963080982763 36.24129773165715, 74.4339907641246 35.954074921492804, 74.86793822843151 35.37262485274882 M74.86793822843151 35.37262485274882 C75.09535360580217 35.02325376352811, 75.32276898317284 34.67388267430739, 75.65477466762029 34.16383278698681 M74.86793822843151 35.37262485274882 C75.11520163563462 34.992761859763206, 75.36246504283771 34.61289886677759, 75.65477466762029 34.16383278698681 M75.65477466762029 34.16383278698681 C75.89257677084254 33.741591072641604, 76.13037887406479 33.31934935829639, 76.3625468933925 32.90711153041879 M75.65477466762029 34.16383278698681 C75.8919345762072 33.74273135424588, 76.12909448479412 33.321629921504964, 76.3625468933925 32.90711153041879 M76.3625468933925 32.90711153041879 C76.49338633251796 32.63542063555925, 76.62422577164342 32.36372974069971, 76.98834651785577 31.60762522025386 M76.3625468933925 32.90711153041879 C76.50053201946876 32.6205824637127, 76.63851714554502 32.33405339700661, 76.98834651785577 31.60762522025386 M76.98834651785577 31.60762522025386 C77.14337236206205 31.224708387843542, 77.29839820626835 30.84179155543323, 77.52960199611961 30.270713724479428 M76.98834651785577 31.60762522025386 C77.11966847219364 31.283257454102063, 77.25099042653152 30.958889687950272, 77.52960199611961 30.270713724479428 M77.52960199611961 30.270713724479428 C77.68922958490869 29.789940860249093, 77.84885717369777 29.309167996018754, 77.98408919332486 28.90187069919823 M77.52960199611961 30.270713724479428 C77.65444726648657 29.89469966152665, 77.77929253685355 29.518685598573875, 77.98408919332486 28.90187069919823 M77.98408919332486 28.90187069919823 C78.07203615913255 28.56649080211742, 78.15998312494024 28.231110905036612, 78.34994052409104 27.50672101401707 M77.98408919332486 28.90187069919823 C78.10636491470062 28.435580378959603, 78.22864063607638 27.969290058720976, 78.34994052409104 27.50672101401707 M78.34994052409104 27.50672101401707 C78.45569358114307 26.963701416971436, 78.5614466381951 26.4206818199258, 78.62565262682513 26.090997638251036 M78.34994052409104 27.50672101401707 C78.43857226611198 27.05161575106489, 78.5272040081329 26.59651048811271, 78.62565262682513 26.090997638251036 M78.62565262682513 26.090997638251036 C78.68829230245338 25.60517668368136, 78.75093197808164 25.11935572911169, 78.81009254135697 24.660518082922838 M78.62565262682513 26.090997638251036 C78.67253520940068 25.727385585808186, 78.71941779197623 25.36377353336534, 78.81009254135697 24.660518082922838 M78.81009254135697 24.660518082922838 C78.83084123577385 24.33734041933526, 78.85158993019071 24.014162755747677, 78.90250236451547 23.221160495362234 M78.81009254135697 24.660518082922838 C78.83288750965092 24.305468051977325, 78.85568247794485 23.950418021031812, 78.90250236451547 23.221160495362234 M78.90250236451547 23.221160495362234 C78.90250236451547 22.84001846998169, 78.90250236451547 22.45887644460115, 78.90250236451547 21.77883950463776 M78.90250236451547 23.221160495362234 C78.90250236451547 22.761143743452042, 78.90250236451547 22.30112699154185, 78.90250236451547 21.77883950463776 M78.90250236451547 21.77883950463776 C78.8765360889518 21.37439380313305, 78.85056981338812 20.96994810162834, 78.81009254135697 20.339481917077165 M78.90250236451547 21.77883950463776 C78.88039074020709 21.434433107852875, 78.85827911589872 21.090026711067992, 78.81009254135697 20.339481917077165 M78.81009254135697 20.339481917077165 C78.73969819028709 19.793517231116166, 78.66930383921722 19.247552545155163, 78.62565262682513 18.909002361748968 M78.81009254135697 20.339481917077165 C78.74015789720126 19.797082627163057, 78.67022325304556 19.25468333724895, 78.62565262682513 18.909002361748968 M78.62565262682513 18.909002361748968 C78.52975962730724 18.416612076217216, 78.43386662778936 17.924221790685465, 78.34994052409104 17.493278985982926 M78.62565262682513 18.909002361748968 C78.56878345494295 18.61699118343769, 78.51191428306076 18.324980005126413, 78.34994052409104 17.493278985982926 M78.34994052409104 17.493278985982926 C78.25911401300348 17.14691813474718, 78.16828750191593 16.800557283511434, 77.98408919332486 16.098129300801773 M78.34994052409104 17.493278985982926 C78.23425580035047 17.052122996283693, 78.11857107660988 16.61096700658446, 77.98408919332486 16.098129300801773 M77.98408919332486 16.098129300801773 C77.84848857509938 15.689721843731114, 77.7128879568739 15.281314386660455, 77.52960199611961 14.729286275520579 M77.98408919332486 16.098129300801773 C77.85751528668901 15.716908860827877, 77.73094138005314 15.33568842085398, 77.52960199611961 14.729286275520579 M77.52960199611961 14.729286275520579 C77.31888551977107 14.208812505013785, 77.10816904342255 13.688338734506992, 76.98834651785577 13.392374779746135 M77.52960199611961 14.729286275520579 C77.31855385832894 14.20799329483946, 77.10750572053826 13.686700314158339, 76.98834651785577 13.392374779746135 M76.98834651785577 13.392374779746135 C76.79614660207159 12.993267542200874, 76.60394668628741 12.594160304655613, 76.3625468933925 12.092888469581206 M76.98834651785577 13.392374779746135 C76.84506170172736 13.094840793251533, 76.70177688559893 12.797306806756932, 76.3625468933925 12.092888469581206 M76.3625468933925 12.092888469581206 C76.11174838534598 11.647570322441798, 75.86094987729945 11.20225217530239, 75.65477466762029 10.836167213013184 M76.3625468933925 12.092888469581206 C76.20620739911915 11.81529186640841, 76.0498679048458 11.537695263235612, 75.65477466762029 10.836167213013184 M75.65477466762029 10.836167213013184 C75.37902452653877 10.412540947031218, 75.10327438545725 9.988914681049254, 74.86793822843151 9.627375147251184 M75.65477466762029 10.836167213013184 C75.4526631713128 10.525669680148978, 75.25055167500533 10.215172147284772, 74.86793822843151 9.627375147251184 M74.86793822843151 9.627375147251184 C74.6218485074332 9.29763734034823, 74.37575878643487 8.967899533445273, 74.00527085553067 8.471479458178495 M74.86793822843151 9.627375147251184 C74.60951144527274 9.28110680098272, 74.35108466211399 8.934838454714255, 74.00527085553067 8.471479458178495 M74.00527085553067 8.471479458178495 C73.72476240721879 8.141978273408487, 73.44425395890691 7.81247708863848, 73.0703174341946 7.373229969120375 M74.00527085553067 8.471479458178495 C73.76738821122355 8.192048968269427, 73.52950556691641 7.912618478360359, 73.0703174341946 7.373229969120375 M73.0703174341946 7.373229969120375 C72.81146165001688 7.105940119501749, 72.55260586583915 6.838650269883123, 72.06691988857844 6.3371396228011285 M73.0703174341946 7.373229969120375 C72.76935042120081 7.062456818352976, 72.46838340820702 6.751683667585575, 72.06691988857844 6.3371396228011285 M72.06691988857844 6.3371396228011285 C71.80832614162875 6.1022916238370355, 71.54973239467907 5.8674436248729425, 70.99920139442524 5.3674659366944795 M72.06691988857844 6.3371396228011285 C71.70051521159637 6.004380589702516, 71.3341105346143 5.671621556603904, 70.99920139442524 5.3674659366944795 M70.99920139442524 5.3674659366944795 C70.60778395220248 5.055320942577415, 70.21636650997974 4.743175948460352, 69.87154943605236 4.468193507970977 M70.99920139442524 5.3674659366944795 C70.75289351547657 5.171041957760844, 70.5065856365279 4.974617978827208, 69.87154943605236 4.468193507970977 M69.87154943605236 4.468193507970977 C69.58015082622428 4.264926452197425, 69.28875221639622 4.061659396423873, 68.68859777723735 3.643017639933589 M69.87154943605236 4.468193507970977 C69.50923023811261 4.2154553200334925, 69.14691104017285 3.962717132096009, 68.68859777723735 3.643017639933589 M68.68859777723735 3.643017639933589 C68.38677197628218 3.460049065669279, 68.084946175327 3.277080491404969, 67.4552074200886 2.895329157223742 M68.68859777723735 3.643017639933589 C68.42561480857849 3.4835958188731246, 68.16263183991964 3.32417399781266, 67.4552074200886 2.895329157223742 M67.4552074200886 2.895329157223742 C67.04973693412674 2.68379546441368, 66.64426644816487 2.4722617716036175, 66.17644663014505 2.228200472195571 M67.4552074200886 2.895329157223742 C67.00390245306038 2.659883644999747, 66.55259748603216 2.424438132775753, 66.17644663014505 2.228200472195571 M66.17644663014505 2.228200472195571 C65.8368408467009 2.0778670659124754, 65.49723506325674 1.9275336596293804, 64.85757010978593 1.6443729597145094 M66.17644663014505 2.228200472195571 C65.88135851232478 2.097573715914541, 65.58627039450452 1.9669469596335114, 64.85757010978593 1.6443729597145094 M64.85757010978593 1.6443729597145094 C64.43992022811075 1.4906739425448612, 64.02227034643558 1.3369749253752132, 63.503997405531464 1.1462456922599564 M64.85757010978593 1.6443729597145094 C64.57316054462825 1.5397076106832863, 64.28875097947058 1.4350422616520635, 63.503997405531464 1.1462456922599564 M63.503997405531464 1.1462456922599564 C63.20680323788241 1.0580400233057372, 62.90960907023336 0.9698343543515181, 62.121290637963924 0.7358655816218409 M63.503997405531464 1.1462456922599564 C63.041507662835606 1.0089811642860251, 62.579017920139755 0.8717166363120936, 62.121290637963924 0.7358655816218409 M62.121290637963924 0.7358655816218409 C61.59726954897673 0.6162611876176949, 61.07324845998955 0.49665679361354886, 60.71513164578088 0.41491896770103054 M62.121290637963924 0.7358655816218409 C61.69256426295116 0.6380115842262334, 61.2638378879384 0.5401575868306259, 60.71513164578088 0.41491896770103054 M60.71513164578088 0.41491896770103054 C60.1952271326972 0.3308648379453772, 59.675322619613524 0.24681070818972387, 59.29129863790139 0.1847246889769636 M60.71513164578088 0.41491896770103054 C60.42959408884872 0.3687554698730639, 60.14405653191655 0.32259197204509726, 59.29129863790139 0.1847246889769636 M59.29129863790139 0.1847246889769636 C58.78723687713758 0.13609845713903898, 58.28317511637377 0.08747222530111436, 57.85564244956604 0.046228663117432234 M59.29129863790139 0.1847246889769636 C58.74694889484108 0.1322119239402838, 58.202599151780774 0.079699158903604, 57.85564244956604 0.046228663117432234 M57.85564244956604 0.046228663117432234 C57.337265600432495 0.029605326525046514, 56.81888875129895 0.012981989932660795, 56.4140625 0 M57.85564244956604 0.046228663117432234 C57.31140557605093 0.02877604587661367, 56.76716870253582 0.011323428635795107, 56.4140625 0 M56.4140625 0 C56.4140625 0, 56.4140625 0, 56.4140625 0 M56.4140625 0 C56.4140625 0, 56.4140625 0, 56.4140625 0"/></g><g transform="translate(-19.45703125, -10.5)" style="" class="label"><rect/><foreignObject height="21" width="38.9140625"><div xmlns="http://www.w3.org/1999/xhtml" style="display: table-cell; white-space: normal; line-height: 1.5; max-width: 200px; text-align: center;"><span class="nodeLabel"><p>Vercel</p></span></div></foreignObject></g></g><g transform="translate(1813.0450820922852, 902.692024230957)" data-look="neo" data-et="node" data-node="true" data-id="supabase" id="flowchart-supabase-21" class="node default"><path transform="translate(-42.359375, -37.648636566830575)" style="" class="basic label-container outer-path" d="M0,10.099091044553719 a42.359375,10.099091044553719 0,0,0 84.71875,0 a42.359375,10.099091044553719 0,0,0 -84.71875,0 l0,55.09909104455372 a42.359375,10.099091044553719 0,0,0 84.71875,0 l0,-55.09909104455372"/><g transform="translate(-30.359375, -3)" style="" class="label"><rect/><foreignObject height="21" width="60.71875"><div xmlns="http://www.w3.org/1999/xhtml" style="display: table-cell; white-space: normal; line-height: 1.5; max-width: 200px; text-align: center;"><span class="nodeLabel"><p>supabase</p></span></div></foreignObject></g></g><g transform="translate(1953.3185195922852, 902.692024230957)" data-look="neo" data-et="node" data-node="true" data-id="webpages" id="flowchart-webpages-22" class="node default"><g class="basic label-container outer-path"><path style="" fill-rule="evenodd" fill="#2a2020" stroke-width="0" stroke="none" d="M-47.9140625 -15.899999999999999 L47.9140625 -15.899999999999999 L47.9140625 26.5 L-47.9140625 26.5 L-47.9140625 -26.5 L47.9140625 -26.5 L47.9140625 -15.899999999999999"/><path style="" fill="none" stroke-width="1.3" stroke="#ccc" d="M-47.9140625 -15.899999999999999 C-28.65181248740588 -15.899999999999999, -9.389562474811761 -15.899999999999999, 47.9140625 -15.899999999999999 M-47.9140625 -15.899999999999999 C-14.596106781309153 -15.899999999999999, 18.721848937381694 -15.899999999999999, 47.9140625 -15.899999999999999 M47.9140625 -15.899999999999999 C47.9140625 -3.6985034596315796, 47.9140625 8.50299308073684, 47.9140625 26.5 M47.9140625 -15.899999999999999 C47.9140625 -3.9827084683078198, 47.9140625 7.934583063384359, 47.9140625 26.5 M47.9140625 26.5 C12.691137406985519 26.5, -22.531787686028963 26.5, -47.9140625 26.5 M47.9140625 26.5 C12.585287624352617 26.5, -22.743487251294766 26.5, -47.9140625 26.5 M-47.9140625 26.5 C-47.9140625 9.680082700771582, -47.9140625 -7.1398345984568365, -47.9140625 -26.5 M-47.9140625 26.5 C-47.9140625 15.339542857026803, -47.9140625 4.179085714053606, -47.9140625 -26.5 M-47.9140625 -26.5 C-23.039401732822924 -26.5, 1.8352590343541522 -26.5, 47.9140625 -26.5 M-47.9140625 -26.5 C-19.48732610951466 -26.5, 8.939410280970677 -26.5, 47.9140625 -26.5 M47.9140625 -26.5 C47.9140625 -22.554232712584813, 47.9140625 -18.608465425169623, 47.9140625 -15.899999999999999 M47.9140625 -26.5 C47.9140625 -22.443935151597675, 47.9140625 -18.38787030319535, 47.9140625 -15.899999999999999 M47.9140625 -15.899999999999999 C10.251552353592913 -15.899999999999999, -27.410957792814173 -15.899999999999999, -47.9140625 -15.899999999999999 M47.9140625 -15.899999999999999 C22.02000988999986 -15.899999999999999, -3.8740427200002827 -15.899999999999999, -47.9140625 -15.899999999999999"/></g><g transform="translate(-31.9140625, -5.199999999999999)" style="" class="label"><rect/><foreignObject height="21" width="63.828125"><div xmlns="http://www.w3.org/1999/xhtml" style="display: table-cell; white-space: normal; line-height: 1.5; max-width: 200px; text-align: center;"><span class="nodeLabel"><p>webpages</p></span></div></foreignObject></g></g></g></g></g><defs><filter width="130%" height="130%" id="drop-shadow"><feDropShadow flood-color="#FFFFFF" flood-opacity="0.06" stdDeviation="0" dy="4" dx="4"/></filter></defs><defs><filter width="150%" height="150%" id="drop-shadow-small"><feDropShadow flood-color="#FFFFFF" flood-opacity="0.06" stdDeviation="0" dy="2" dx="2"/></filter></defs><linearGradient y2="0%" x2="100%" y1="0%" x1="0%" gradientUnits="objectBoundingBox" id="export-svg-gradient"><stop stop-opacity="1" stop-color="#0042eb" offset="0%"/><stop stop-opacity="1" stop-color="#eb0042" offset="100%"/></linearGradient></svg>