<svg width="256" height="256" viewBox="0 0 256 256" fill="none" xmlns="http://www.w3.org/2000/svg">
<path d="M115.996 168.044C161.536 168.044 201.079 168.044 248 168.044C248 168.044 230.683 197.412 218.003 202.339C206.682 206.738 194.002 208.055 176.002 208.055C176.002 200.51 176.002 192.965 176.002 185.191C153.644 185.191 118.999 185.191 118.999 185.191H109.996C112.996 182.333 116.001 173.76 115.996 168.044Z" fill="#FDBB10"/>
<path d="M115.996 168.044C161.536 168.044 201.079 168.044 248 168.044C248 168.044 227.003 139.465 212.003 133.749C212.003 133.749 187.999 128.033 169.999 128.033C169.999 135.578 169.999 143.123 169.999 150.896C147.225 150.896 132.718 150.896 109.996 150.896C112.998 153.754 115.995 162.328 115.996 168.044Z" fill="#F6D784"/>
<path d="M85.999 8C85.999 8 67.9987 16.5738 64.9987 19.4317C61.9986 22.2896 57.2152 29.4077 56.6058 30.8634C54.2129 36.5793 50.7271 59.4427 50.7271 76.5903C56.547 76.5903 62.3668 76.5903 68.363 76.5903C68.363 96.4793 68.067 112.859 67.9987 133.749C67.9768 140.446 68.0008 150.896 68.0008 150.896C74.0009 145.181 83.001 142.323 86.001 142.323C86.001 97.0531 85.999 54.6414 85.999 8Z" fill="#0D69D6"/>
<path d="M85.999 8C85.999 8 104.873 17.4059 106.999 19.4317C111.795 24.0002 112.999 25.1476 115.999 30.8634C118.092 34.8508 124.999 59.4427 121.999 76.5903C116.059 76.5903 110.119 76.5903 103.999 76.5903C103.999 98.3038 103.999 116.932 103.999 139.465C103.999 140.967 104.001 145.181 104.001 145.181C101.001 142.323 91.999 142.323 86.001 142.323C86.001 97.0531 85.999 54.6414 85.999 8Z" fill="#8EBBFA"/>
<path d="M80.8927 147.058C89.8928 144.2 98.8929 144.2 104.895 149.916L8.89406 247.086C8.89406 247.086 3.12605 204.67 20.8913 172.779C20.8913 172.779 35.0826 174.596 38.8945 172.779C44.8922 169.921 53.8923 164.205 65.8925 155.632C69.8925 152.774 80.8927 147.058 80.8927 147.058Z" fill="#FE363A"/>
<path d="M104.895 149.916C116.896 161.348 116.894 178.495 92.8937 198.5C78.7796 212.45 74.8935 209.932 80.8936 235.654C53.8932 252.801 8.89406 247.086 8.89406 247.086C38.8945 204.217 105.386 150.393 104.895 149.916Z" fill="#FF989B"/>
</svg>
